<?xml version="1.0" encoding="utf-8"?>
<!-- Generator: Adobe Illustrator 16.0.0, SVG Export Plug-In . SVG Version: 6.00 Build 0)  -->
<!DOCTYPE svg PUBLIC "-//W3C//DTD SVG 1.1//EN" "http://www.w3.org/Graphics/SVG/1.1/DTD/svg11.dtd">
<svg version="1.1" id="Layer_1" xmlns="http://www.w3.org/2000/svg" xmlns:xlink="http://www.w3.org/1999/xlink" x="0px" y="0px"
	 width="100px" height="100px" viewBox="0 0 100 100" enable-background="new 0 0 100 100" xml:space="preserve">
<path fill="none" stroke="#88C440" stroke-width="4.0085" stroke-miterlimit="10" d="M16.422,38.612l0.188,45.811
	c0.028,6.922,6.856,6.938,6.856,6.938l23.398-0.125c0,0,10.13,0.979,10.087-9.668L56.91,71.555"/>
<path id="handle" fill="#88C440" d="M29.434,33.716c-0.031-7.745-5.795-14-12.871-13.972C9.487,19.772,3.775,26.075,3.807,33.821
	c0.01,2.329,0.542,4.599,1.469,6.528c1.431,3.617,4.719,11.114,9.289,17.242l1.22-0.005l1.829-0.007l0.969-0.005
	c4-5.361,7.038-11.958,8.682-15.915C28.645,39.414,29.446,36.629,29.434,33.716z"/>
<path fill="#88C440" d="M96.006,41.28c0-12.001-9.249-21.834-21.006-22.779V7.918C75,6.858,74.143,6,73.084,6H36.917
	C35.858,6,35,6.858,35,7.918v71.164C35,80.143,35.858,81,36.917,81h2.886l13.388,6.965c0,0,3.209-1.162,2.568-6.965h17.324
	C74.143,81,75,80.143,75,79.082v-4.253l15.682-18.886H90.68C94.003,51.975,96.006,46.862,96.006,41.28z M73.146,57.389
	c-8.896,0-16.108-7.211-16.108-16.109c0-8.896,7.212-16.108,16.108-16.108c8.897,0,16.109,7.212,16.109,16.108
	C89.255,50.178,82.043,57.389,73.146,57.389z"/>
<path id="pin" fill="#88C440" d="M71.111,37.149c-1.572,0.781-2.655,2.399-2.655,4.272c0,2.638,2.138,4.776,4.774,4.776
	c2.16,0,3.981-1.436,4.572-3.403l0.012,0.022l5.582-13.039L71.111,37.149z M73.23,44.016c-1.433,0-2.594-1.162-2.594-2.595
	s1.161-2.593,2.594-2.593c1.434,0,2.595,1.16,2.595,2.593S74.664,44.016,73.23,44.016z"/>
</svg>
