<?xml version="1.0" encoding="utf-8"?>
<!-- Generator: Adobe Illustrator 16.0.0, SVG Export Plug-In . SVG Version: 6.00 Build 0)  -->
<!DOCTYPE svg PUBLIC "-//W3C//DTD SVG 1.1//EN" "http://www.w3.org/Graphics/SVG/1.1/DTD/svg11.dtd">
<svg version="1.1" id="Layer_1" xmlns="http://www.w3.org/2000/svg" xmlns:xlink="http://www.w3.org/1999/xlink" x="0px" y="0px"
	 width="100px" height="100px" viewBox="0 0 100 100" enable-background="new 0 0 100 100" xml:space="preserve">
<path fill="#88C440" d="M75,79.082C75,80.142,74.143,81,73.084,81H36.917C35.858,81,35,80.142,35,79.082V7.918
	C35,6.858,35.858,6,36.917,6h36.167C74.143,6,75,6.858,75,7.918V79.082z"/>
<path fill="none" stroke="#88C440" stroke-width="4.0085" stroke-miterlimit="10" d="M16.422,38.612l0.188,45.811
	c0.028,6.922,6.856,6.938,6.856,6.938l23.398-0.124c0,0,10.13,0.979,10.087-9.669L56.91,71.555"/>
<g>
	<circle fill="#88C440" cx="73.146" cy="41.28" r="22.86"/>
	<path fill="#FFFFFF" d="M89.322,41.28c0-8.937-7.242-16.176-16.176-16.176c-8.936,0-16.178,7.239-16.178,16.176
		c0,8.934,7.242,16.177,16.178,16.177C82.08,57.457,89.322,50.214,89.322,41.28z"/>
	<path fill="#88C440" d="M82.896,30.163l-12.285,7.372c-1.572,0.781-2.655,2.399-2.655,4.272c0,2.638,2.138,4.776,4.774,4.776
		c2.16,0,3.982-1.436,4.573-3.403l0.011,0.022L82.896,30.163z M72.73,44.402c-1.432,0-2.594-1.162-2.594-2.595
		s1.162-2.593,2.594-2.593c1.434,0,2.595,1.16,2.595,2.593S74.164,44.402,72.73,44.402z"/>
</g>
<path fill="#88C440" d="M29.434,33.716c-0.031-7.745-5.795-14-12.871-13.972S3.775,26.075,3.807,33.821
	c0.01,2.329,0.542,4.599,1.469,6.528c1.431,3.617,4.719,11.114,9.289,17.242l1.22-0.005l1.829-0.007l0.969-0.005
	c4-5.361,7.038-11.958,8.682-15.915C28.645,39.414,29.446,36.629,29.434,33.716z"/>
<polyline fill="#88C440" points="90.682,55.943 74.166,75.833 70.385,71.395 71.731,60.519 "/>
<path fill="#88C440" d="M37.543,79.824l15.649,8.141c0,0,4.661-1.656,1.657-11.082"/>
</svg>
