<?xml version="1.0" encoding="utf-8"?>
<!-- Generator: Adobe Illustrator 16.0.0, SVG Export Plug-In . SVG Version: 6.00 Build 0)  -->
<!DOCTYPE svg PUBLIC "-//W3C//DTD SVG 1.1//EN" "http://www.w3.org/Graphics/SVG/1.1/DTD/svg11.dtd">
<svg version="1.1" id="Layer_1" xmlns="http://www.w3.org/2000/svg" xmlns:xlink="http://www.w3.org/1999/xlink" x="0px" y="0px"
	 width="100px" height="100px" viewBox="0 0 100 100" enable-background="new 0 0 100 100" xml:space="preserve">
<path fill="#57772A" d="M69.539,45.255"/>
<path fill-rule="evenodd" clip-rule="evenodd" fill="#88C440" d="M97.229,45l-8.042-18.363c-0.469-1.373-1.035-2.654-1.729-3.943
	c-1.879-3.643-4.549-6.776-7.915-9.2c-4.979-3.77-10.513-5.024-16.339-3.738c-3.926,0.765-7.749,2.681-11.135,5.675
	c-1.186,0.893-2.385,1.813-3.629,2.689c-1.244-0.876-2.443-1.792-3.629-2.685c-3.387-2.994-7.208-4.902-11.135-5.666
	c-5.826-1.287-11.359-0.018-16.339,3.751c-3.367,2.425-6.034,5.584-7.915,9.227c-2.183,4.055-3.238,8.532-3.229,13.382
	c-0.028,2.664,0.269,5.402,0.91,8.16c0.513,2.2,0.836,3.443,1.316,4.314C8.854,49.818,9.344,50,9.883,52H3.077l20.929,19.255
	l-0.168-0.188c1.983,2.102,4.029,4.157,6.123,6.114c5.053,4.779,10.379,9.204,15.883,13.36c0.404,0.314,0.807,0.638,1.212,0.949
	c0.321,0.248,0.847,0.348,1.386,0.32c0.539,0.027,1.064-0.066,1.387-0.314c0.404-0.312,0.807-0.625,1.21-0.938
	c5.505-4.157,10.831-8.564,15.884-13.345c4.191-3.915,8.189-8.09,11.888-12.662c0.712-0.859,1.416-1.727,2.109-2.609
	c3.128-3.99,5.792-8.397,7.542-13.306C88.87,47.895,89.166,47,89.561,45H97.229z"/>
<polyline fill-rule="evenodd" clip-rule="evenodd" fill="none" stroke="#FFFFFF" stroke-width="7" stroke-linecap="round" stroke-miterlimit="10" points="
	2,48.5 29.108,48.5 40.949,32.771 59.142,61.918 68.924,48.5 96,48.5 "/>
</svg>
