<?xml version="1.0" encoding="utf-8"?>
<!-- Generator: Adobe Illustrator 16.0.0, SVG Export Plug-In . SVG Version: 6.00 Build 0)  -->
<!DOCTYPE svg PUBLIC "-//W3C//DTD SVG 1.1//EN" "http://www.w3.org/Graphics/SVG/1.1/DTD/svg11.dtd">
<svg version="1.1" id="Layer_1" xmlns="http://www.w3.org/2000/svg" xmlns:xlink="http://www.w3.org/1999/xlink" x="0px" y="0px"
	 width="280px" height="75px" viewBox="0 0 280 75" enable-background="new 0 0 280 75" xml:space="preserve">
<g opacity="0.7">
	<text transform="matrix(1 0 0 1 225.0381 45.4238)" fill="#FFFFFF" font-family="'Gotham-Book'" font-size="12">by GE</text>
</g>
<text transform="matrix(1 0 0 1 101.4668 45.4229)"><tspan x="0" y="0" fill="#89C540" font-family="'QuicksandBold-Regular'" font-size="18">PULSE</tspan><tspan x="57.959" y="0" fill="#282827" font-family="'QuicksandBold-Regular'" font-size="18"> </tspan><tspan x="63.359" y="0" fill="#FFFFFF" font-family="'QuicksandBold-Regular'" font-size="18">BAND</tspan></text>
<g>
	<path fill="#88C440" d="M24.442,22.858h24.363c1.822,0,3.3,1.478,3.3,3.3v24.143c0,1.822-1.478,3.3-3.3,3.3H24.663l3.285-2.984
		L24.561,64.81c-0.166,0.696-0.865,1.126-1.562,0.96c-0.576-0.137-0.969-0.641-0.994-1.204l-0.627-14.579
		c-0.068-1.579,1.157-2.915,2.736-2.982l0.112-0.003h0.437h24.143l-3.3,3.3V26.158l3.3,3.3H24.442c-1.822,0-3.3-1.478-3.3-3.3
		S22.62,22.858,24.442,22.858z"/>
</g>
<g>
	<path fill="#FFFFFF" d="M61.636,46.781H86l-3.3,3.3V25.938l3.3,3.3H61.856H61.49c-1.618,0-2.929-1.312-2.929-2.929
		c0-0.043,0.001-0.097,0.003-0.139l0.749-15.757c0.038-0.802,0.719-1.422,1.521-1.384c0.685,0.033,1.236,0.535,1.359,1.181
		l2.953,15.495l-3.292-3.067H86c1.822,0,3.3,1.478,3.3,3.3v24.144c0,1.822-1.478,3.3-3.3,3.3H61.636c-1.822,0-3.3-1.478-3.3-3.3
		S59.814,46.781,61.636,46.781z"/>
</g>
</svg>
