<?xml version="1.0" encoding="utf-8"?>
<!-- Generator: Adobe Illustrator 16.0.0, SVG Export Plug-In . SVG Version: 6.00 Build 0)  -->
<!DOCTYPE svg PUBLIC "-//W3C//DTD SVG 1.1//EN" "http://www.w3.org/Graphics/SVG/1.1/DTD/svg11.dtd">
<svg version="1.1" id="Layer_1" xmlns="http://www.w3.org/2000/svg" xmlns:xlink="http://www.w3.org/1999/xlink" x="0px" y="0px"
	 width="100px" height="100px" viewBox="0 0 100 100" enable-background="new 0 0 100 100" xml:space="preserve">
<path fill="#57772A" d="M83.539-58.745"/>
<path fill-rule="evenodd" clip-rule="evenodd" fill="#88C440" d="M111.229-59l-8.042-18.363c-0.469-1.373-1.035-2.654-1.729-3.943
	c-1.879-3.643-4.549-6.776-7.915-9.2c-4.979-3.77-10.513-5.024-16.339-3.738c-3.926,0.765-7.749,2.681-11.135,5.675
	c-1.186,0.893-2.385,1.813-3.629,2.689c-1.244-0.876-2.443-1.792-3.629-2.685c-3.387-2.994-7.208-4.902-11.135-5.666
	c-5.826-1.287-11.359-0.018-16.339,3.751c-3.367,2.425-6.034,5.584-7.915,9.227c-2.183,4.055-3.238,8.532-3.229,13.382
	c-0.028,2.664,0.269,5.402,0.91,8.16c0.513,2.2,0.836,3.443,1.316,4.314C22.854-54.182,23.344-54,23.883-52h-6.806l20.929,19.255
	l-0.168-0.188c1.983,2.102,4.029,4.157,6.123,6.114c5.053,4.779,10.379,9.204,15.883,13.36c0.404,0.314,0.807,0.638,1.212,0.949
	c0.321,0.248,0.847,0.348,1.386,0.32c0.539,0.027,1.064-0.066,1.387-0.314c0.404-0.312,0.807-0.625,1.21-0.938
	c5.505-4.157,10.831-8.564,15.884-13.345c4.191-3.915,8.189-8.09,11.888-12.662c0.712-0.859,1.416-1.727,2.109-2.609
	c3.128-3.99,5.792-8.397,7.542-13.306c0.409-0.742,0.705-1.637,1.1-3.637H111.229z"/>
<polyline fill-rule="evenodd" clip-rule="evenodd" fill="none" stroke="#FFFFFF" stroke-width="7" stroke-linecap="round" stroke-miterlimit="10" points="
	16,-55.5 43.108,-55.5 54.949,-71.229 73.142,-42.082 82.924,-55.5 110,-55.5 "/>
<g>
	<path fill="#88C440" d="M28.454,57.907L39.43,45.136H28.797v-3.849h16.277v3.335L34.098,57.394h10.977v3.85h-16.62V57.907z"/>
</g>
<text transform="matrix(1 0 0 1 47.7944 61.2422)" fill="#88C440" font-family="'Gotham-Bold'" font-size="28.5089">Z</text>
<text transform="matrix(1 0 0 1 69.0889 61.2422)" fill="#88C440" font-family="'Gotham-Bold'" font-size="28.5089">Z</text>
<polyline fill="#88C440" points="45.056,61.243 37.54,67.427 33.705,58.933 "/>
<path fill="#88C440" d="M34.957,49.563c0-2.364,1.445-5.968,1.741-8.228L26.381,41.24l10.902-7.16
	C41.42,20.803,50.715,10.689,62.137,7.495c-3.076-0.696-6.271-1.076-9.558-1.076c-23.827,0-43.144,19.316-43.144,43.145
	c0,23.827,19.316,43.146,43.144,43.146c3.286,0,6.481-0.382,9.558-1.078C46.578,87.281,34.957,70.105,34.957,49.563z"/>
</svg>
