<?xml version="1.0" encoding="utf-8"?>
<!-- Generator: Adobe Illustrator 16.0.0, SVG Export Plug-In . SVG Version: 6.00 Build 0)  -->
<!DOCTYPE svg PUBLIC "-//W3C//DTD SVG 1.1//EN" "http://www.w3.org/Graphics/SVG/1.1/DTD/svg11.dtd">
<svg version="1.1" id="Layer_1" xmlns="http://www.w3.org/2000/svg" xmlns:xlink="http://www.w3.org/1999/xlink" x="0px" y="0px"
	 width="100px" height="100px" viewBox="0 0 100 100" enable-background="new 0 0 100 100" xml:space="preserve">
<path fill="#57772A" d="M83.539-58.745"/>
<path fill-rule="evenodd" clip-rule="evenodd" fill="#88C440" d="M111.229-59l-8.042-18.363c-0.469-1.373-1.035-2.654-1.729-3.943
	c-1.879-3.643-4.549-6.776-7.915-9.2c-4.979-3.77-10.513-5.024-16.339-3.738c-3.926,0.765-7.749,2.681-11.135,5.675
	c-1.186,0.893-2.385,1.813-3.629,2.689c-1.244-0.876-2.443-1.792-3.629-2.685c-3.387-2.994-7.208-4.902-11.135-5.666
	c-5.826-1.287-11.359-0.018-16.339,3.751c-3.367,2.425-6.034,5.584-7.915,9.227c-2.183,4.055-3.238,8.532-3.229,13.382
	c-0.028,2.664,0.269,5.402,0.91,8.16c0.513,2.2,0.836,3.443,1.316,4.314C22.854-54.182,23.344-54,23.883-52h-6.806l20.929,19.255
	l-0.168-0.188c1.983,2.102,4.029,4.157,6.123,6.114c5.053,4.779,10.379,9.204,15.883,13.36c0.404,0.314,0.807,0.638,1.212,0.949
	c0.321,0.248,0.847,0.348,1.386,0.32c0.539,0.027,1.064-0.066,1.387-0.314c0.404-0.312,0.807-0.625,1.21-0.938
	c5.505-4.157,10.831-8.564,15.884-13.345c4.191-3.915,8.189-8.09,11.888-12.662c0.712-0.859,1.416-1.727,2.109-2.609
	c3.128-3.99,5.792-8.397,7.542-13.306c0.409-0.742,0.705-1.637,1.1-3.637H111.229z"/>
<polyline fill-rule="evenodd" clip-rule="evenodd" fill="none" stroke="#FFFFFF" stroke-width="7" stroke-linecap="round" stroke-miterlimit="10" points="
	16,-55.5 43.108,-55.5 54.949,-71.229 73.142,-42.082 82.924,-55.5 110,-55.5 "/>
<g>
	<path fill-rule="evenodd" clip-rule="evenodd" fill="#88C440" d="M61.6,74.225c0.858,0.865,1.84,1.504,3.051,1.502
		C70.494,75.704,76.338,76,82.184,76c4.664,0,9.328,0,14.015,0c0,0,0.027-0.592-0.004-0.702c-1.153-4.117-5.138-7.396-9.445-7.496
		c-2.719-0.064-5.44-0.087-8.157-0.091c-2.319-0.002-2.993-0.535-3.772-2.677c-0.272-0.744-0.528-1.517-0.798-2.265l0.106,0.142
		L65.441,39.2c0,0-4.298-0.116-7.394-0.449c-6.048-1.02-11.301-3.967-15.881-8.093c-3.598-3.236-5.942-7.103-5.852-12.2
		c0.04-2.238-0.609-4.418-1.936-6.307c-1.371-1.951-3.396-2.871-5.607-2.146c-1.463,0.478-2.975,1.238-4.09,2.275
		c-4.218,3.922-8.282,8.009-12.471,12.102c0.246,0.267,0.377,0.419,0.518,0.564C29.021,41.369,45.314,57.792,61.6,74.225z"/>
	<path fill-rule="evenodd" clip-rule="evenodd" fill="#88C440" d="M96.76,80c-0.662,0-1.148,0-1.635,0
		c-10.189,0-20.378-0.344-30.565-0.328c-2.283,0.006-4.161-0.962-5.766-2.585C45.511,63.68,32.219,50.194,18.916,36.804
		c-3.143-3.164-6.345-6.311-9.764-9.683c-1.17,1.263-2.351,2.581-3.596,3.857c-1.989,2.041-2.012,4.164,0.019,6.145
		C21.683,52.813,37.791,68.5,53.912,84.176c2.038,1.98,4.541,2.943,7.383,2.949c6.212,0.015,12.421,0.009,18.633,0.009
		c4.261,0,8.523,0.006,12.786-0.012c2.204-0.013,3.896-0.869,4.021-2.607C96.849,82.95,96.76,81,96.76,80z"/>
</g>
<circle fill-rule="evenodd" clip-rule="evenodd" fill="#FFFFFF" cx="59.697" cy="48.958" r="2.01"/>
<circle fill-rule="evenodd" clip-rule="evenodd" fill="#FFFFFF" cx="64.325" cy="56.751" r="2.01"/>
<polyline fill-rule="evenodd" clip-rule="evenodd" fill="#88C440" points="64,87 22.412,87 55.137,78.582 "/>
<polyline fill-rule="evenodd" clip-rule="evenodd" fill="#FFFFFF" points="21.639,86.985 64.482,79.567 57.595,74.572 
	45.786,78.129 "/>
</svg>
